# xmcd CD database file
#
# Track frame offsets:
#	150
#	22800
#	42124
#	58026
#	77183
#	100621
#	119055
#	140613
#	157936
#	178775
#	198453
#	218669
#	238493
#	257472
#	278986
#	294093
#	315399
#
# Disc length: 4464 seconds
#
# Revision: 0
# Processed by: cddbd v1.5.1PL0 Copyright (c) Steve Scherf et al.
# Submitted via: CDex 1.51
#
DISCID=ed116e11
DTITLE=Los 3 grandes del merengue dominicano - Exitos 3
DYEAR=2004
DGENRE=Merengue
TTITLE0=Sergio Vargas - La quiero a morir
TTITLE1=Eddy Herrera - La ultima vez
TTITLE2=Juan Luis Guerra - Ella dice
TTITLE3=Sergio Vargas - La pastilla
TTITLE4=Eddy Herrera - Si tu te vas
TTITLE5=Ojala que llueva cafe
TTITLE6=Sergio Vargas - Vete y dile
TTITLE7=Eddy Herrera - Ay amor
TTITLE8=Juan Luis Guerra - De tu boca
TTITLE9=Sergio Vargas - Musica para tu fiesta
TTITLE10=Eddy Herrera - No se olvidar
TTITLE11=Juan Luis Guerra - Rompiendo fuerte
TTITLE12=Sergio Vargas - Que te pasa corazon
TTITLE13=Eddy Herrera - carolina
TTITLE14=Juan Luis Guerra - Rosalba
TTITLE15=Sergio Vargas - Te va a doler
TTITLE16=Eddy Herrera - Para siempre
EXTD=YEAR: 2004
EXTT0=
EXTT1=
EXTT2=
EXTT3=
EXTT4=
EXTT5=
EXTT6=
EXTT7=
EXTT8=
EXTT9=
EXTT10=
EXTT11=
EXTT12=
EXTT13=
EXTT14=
EXTT15=
EXTT16=
PLAYORDER=
